<svg id="Layer_1" data-name="Layer 1" xmlns="http://www.w3.org/2000/svg" viewBox="0 0 135.13 472.43"><defs><style>.cls-1{fill:#d6de23;}.cls-2{fill:#93c01f;}</style></defs><title>Web_Lovebreath_Assets</title><path class="cls-1" d="M128.51,122.66c-16.7-24.45-37.63-46.52-46.87-75.53C75.64,28.28,76.29,19.6,81,0H0V468.25c11.86,3.91,22.9,5.45,32.5,3,16.66-4.28,28.37-22.51,28.37-22.51,9.87-14.55,9.15-31.42,9-35.51-.4-12.52-5.73-26.93-7.12-40.34a43.48,43.48,0,0,1,.72-15.17,31.86,31.86,0,0,1,7.83-13.9c5.94-6.26,9.9-6.54,15.64-10.43,8.82-6,10.14-19.69,10.34-21.89.34-3.82,1.07-13.87-6.43-23.31a33.81,33.81,0,0,0-9.26-7.94c19.9-7.2,42.07-26,35.28-40.56-.64-1.36-6.79-7.94-14.69-11.45a25.6,25.6,0,0,1-5.68-3.76c-5.77-4.83-12-12.84-12.5-20.15A22.81,22.81,0,0,1,87,190.85a24,24,0,0,1,5.8-6.59c4.7-3.73,10.18-5.68,13.75-7.32,0,0,16.22-7.44,26.75-27.6h0C136.9,140.32,135.16,132.4,128.51,122.66Z"/><g id="lQpWOw"><path class="cls-2" d="M129.85,272.66c-3.38,8.22-8.72,13.36-16.08,16.48-1.35.57-2.72,1.13-4.08,1.69s-1.25.62-.72,1.89c1.46,3.5,3,7,3.58,10.8,1.29,9.32-1.21,17.54-7.72,24.25-7.48,7.72-16.74,10.58-27.29,8.23-9.49-2.11-16.25-7.8-20.12-16.76-2.14-4.93-4.12-9.93-6.19-14.9S47,294.2,44.88,289.12s-4.19-10-6.25-15.05c-1.75-4.26-3.46-8.54-5.18-12.81-.52-1.27-.48-1.37.81-1.91l30.45-12.58c8.38-3.46,16.77-6.88,25.12-10.39,5.13-2.15,10.39-3.5,16-2.82a28.23,28.23,0,0,1,20.27,11.66,28.81,28.81,0,0,1,5.52,20.46A21.86,21.86,0,0,1,129.85,272.66Z"/></g></svg>