<svg id="Layer_1" data-name="Layer 1" xmlns="http://www.w3.org/2000/svg" viewBox="0 0 135.13 472.43"><defs><style>.cls-1{fill:#d6de23;}.cls-2{fill:#93c01f;}</style></defs><title>Web_Lovebreath_Assets</title><path class="cls-1" d="M6.61,122.66c16.7-24.45,37.63-46.52,46.88-75.53,6-18.85,5.35-27.53.62-47.13h81V468.25c-11.86,3.91-22.91,5.45-32.51,3C86,467,74.25,448.73,74.25,448.73c-9.86-14.55-9.14-31.42-9-35.51.39-12.52,5.73-26.93,7.12-40.34a43.24,43.24,0,0,0-.73-15.17,31.81,31.81,0,0,0-7.82-13.9c-5.94-6.26-9.9-6.54-15.64-10.43-8.82-6-10.15-19.69-10.34-21.89-.34-3.82-1.07-13.87,6.43-23.31a33.81,33.81,0,0,1,9.26-7.94c-19.9-7.2-42.07-26-35.28-40.56.63-1.36,6.79-7.94,14.69-11.45a25.83,25.83,0,0,0,5.68-3.76c5.77-4.83,12-12.84,12.49-20.15a22.7,22.7,0,0,0-2.93-13.47,23.86,23.86,0,0,0-5.81-6.59c-4.69-3.73-10.17-5.68-13.75-7.32,0,0-16.21-7.44-26.75-27.6h0C-1.77,140.32,0,132.4,6.61,122.66Z"/><g id="lQpWOw"><path class="cls-2" d="M5.28,272.66C8.66,280.88,14,286,21.35,289.14l4.08,1.69c1.28.53,1.25.62.73,1.89-1.47,3.5-3.06,7-3.58,10.8-1.29,9.32,1.21,17.54,7.72,24.25C37.78,335.49,47,338.35,57.58,336c9.5-2.11,16.25-7.8,20.13-16.76,2.13-4.93,4.12-9.93,6.18-14.9s4.24-10.14,6.36-15.22,4.18-10,6.25-15.05c1.75-4.26,3.45-8.54,5.18-12.81.51-1.27.48-1.37-.82-1.91L70.41,246.77c-8.37-3.46-16.76-6.88-25.12-10.39-5.13-2.15-10.38-3.5-16-2.82A28.25,28.25,0,0,0,9,245.22a28.75,28.75,0,0,0-5.51,20.46A21.6,21.6,0,0,0,5.28,272.66Z"/></g></svg>