<?xml version="1.0" encoding="utf-8"?>
<!-- Generator: Adobe Illustrator 24.0.1, SVG Export Plug-In . SVG Version: 6.00 Build 0)  -->
<svg version="1.1" id="Layer_1" xmlns="http://www.w3.org/2000/svg" xmlns:xlink="http://www.w3.org/1999/xlink" x="0px" y="0px"
	 viewBox="0 0 137.71 69.54" style="enable-background:new 0 0 137.71 69.54;" xml:space="preserve">
<style type="text/css">
	.st0{fill:url(#SVGID_1_);}
	.st1{opacity:0.3;}
	.st2{opacity:0.35;}
	.st3{opacity:0.4;}
	.st4{fill:#D7DF23;}
	.st5{fill:#8DC63F;}
	.st6{fill:#FFFFFF;}
	.st7{fill:#ED1C24;}
	.st8{fill:url(#SVGID_2_);}
	.st9{fill:#DB2C68;}
	.st10{fill:#AB1D49;}
	.st11{fill:#DA2969;}
	.st12{fill:url(#SVGID_3_);}
	.st13{fill:#7F3F98;}
	.st14{fill:#472466;}
	.st15{fill:url(#SVGID_4_);}
	.st16{fill:#EE6B2C;}
	.st17{fill:#CF3823;}
	.st18{fill:url(#SVGID_5_);}
	.st19{fill:#39B54A;}
	.st20{fill:url(#SVGID_6_);}
	.st21{fill:#67ABDD;}
	.st22{fill:#2978B3;}
	.st23{fill:#D3173B;}
	.st24{fill:url(#SVGID_7_);}
</style>
<g>
	<g>
		<path class="st6" d="M91.6,35.12l0.04-1.04c0.1-2.58,0.16-5.11,0.2-7.51c0.03-1.87,0.04-3.74,0.05-5.62
			c-1.35,4.46-2.58,8.97-3.67,13.4l-0.19,0.76H76.1l-0.24-0.65c-1.4-3.78-2.89-7.64-4.44-11.51c-0.55,3.07-1.78,5.67-3.69,7.74
			c-2.69,2.93-6.29,4.42-10.72,4.42c-4.06,0-7.44-1.25-10.05-3.73l-0.56,3.73H24.23l0.07-1.07c0.17-2.52,0.29-5.04,0.36-7.49
			c0.07-2.45,0.11-4.97,0.11-7.5c0-2.5-0.04-5.01-0.13-7.48c-0.08-2.46-0.19-4.98-0.34-7.49l-0.06-1.06h12.9L37.1,4.07
			c-0.12,3.79-0.21,6.9-0.27,9.33c-0.06,2.41-0.08,4.74-0.05,6.92c0,0.51,0.01,1.03,0.02,1.56c0,0.21,0.01,0.43,0.01,0.64
			c1.13,0,2.21-0.06,3.2-0.15c0.36-0.04,0.88-0.08,1.47-0.12c0.31-0.02,0.64-0.05,0.97-0.08c-0.14-1.02-0.22-2.06-0.22-3.11
			c0-4.79,1.36-8.7,4.04-11.6c2.7-2.93,6.31-4.42,10.73-4.42c3.91,0,7.19,1.17,9.76,3.49l9.62-3.79l0.37,0.92
			c0.98,2.43,1.94,4.88,2.9,7.33c0,0,1.28,3.3,1.73,4.46c0.43-1.67,0.85-3.33,1.26-4.99l2.28-9.09L86,1.79
			c0.83,0.34,1.66,0.67,2.48,0.99c0.83,0.33,1.66,0.66,2.49,1l0.66,0.27l-0.03-1.02h19.64l1.92,10.28l-1.45-0.28
			c-1.4-0.27-2.83-0.43-4.25-0.47c-0.33-0.01-0.67-0.01-1-0.01c-0.83,0-1.66,0.03-2.49,0.09c-0.01,0.27-0.01,0.54-0.01,0.82v0.85
			c0.74,0.04,1.48,0.06,2.23,0.06c0.39,0,0.78-0.01,1.16-0.02c1.41-0.04,2.83-0.2,4.22-0.47l1.44-0.28l-1.92,10.28h-7.14
			c0.01,0.26,0.02,0.52,0.02,0.78c0,0.27,0,0.54,0.02,0.82c0,0.01,0,0.02,0,0.02c0.75,0.04,1.5,0.06,2.24,0.06
			c0.39,0,0.78-0.01,1.17-0.02c1.41-0.04,2.83-0.2,4.22-0.47l1.44-0.28l-1.93,10.33H91.6z M57.01,14.92c-0.82,0-1.51,0.35-2.11,1.07
			c-0.65,0.77-0.96,1.67-0.96,2.77s0.31,2,0.96,2.77c0.61,0.72,1.3,1.07,2.11,1.07c0.83,0,1.5-0.34,2.12-1.07
			c0.65-0.77,0.96-1.67,0.96-2.77s-0.31-2-0.96-2.77C58.51,15.26,57.84,14.92,57.01,14.92z"/>
		<path class="st7" d="M85.63,2.72c0.84,0.34,1.66,0.67,2.49,1c0.82,0.32,1.65,0.66,2.48,0.99c0.7,0.28,1.38,0.57,2.07,0.85
			c-0.01-0.51-0.02-1.02-0.04-1.52c1.48,0,2.96,0,4.43,0c1.48,0,2.97,0,4.47,0c1.48,0,2.96,0,4.44,0c1.48,0,2.96,0,4.44,0l1.5,8.02
			c-1.45-0.28-2.93-0.45-4.42-0.49c-0.34-0.01-0.69-0.01-1.03-0.01c-1.15,0-2.31,0.05-3.46,0.16c-0.02,0.57-0.04,1.15-0.04,1.74
			c0,0.59,0,1.19,0,1.78c1.08,0.08,2.15,0.12,3.22,0.12c0.4,0,0.8-0.01,1.19-0.02c1.47-0.04,2.93-0.21,4.38-0.49l-1.5,8.02h-7.33
			c0,0.28,0.01,0.57,0.02,0.87c0.01,0.3,0.02,0.6,0.02,0.91c0,0.28,0,0.57,0.02,0.87c0.01,0.3,0.02,0.6,0.02,0.91
			c1.08,0.08,2.15,0.12,3.22,0.12c0.4,0,0.8-0.01,1.19-0.02c1.47-0.04,2.93-0.21,4.38-0.49l-1.5,8.06c-1.48,0-2.95,0-4.42,0
			c-1.47,0-2.94,0-4.42,0c-1.48,0-2.95,0-4.42,0c-1.47,0-2.94,0-4.42,0c0.09-2.52,0.16-5.03,0.2-7.53c0.04-2.5,0.05-5.01,0.05-7.53
			c0-1.47-0.03-2.95-0.04-4.43c-0.64,1.93-1.26,3.87-1.85,5.8c-1.38,4.57-2.63,9.13-3.75,13.69c-1.74,0-3.48,0-5.2,0
			c-1.73,0-3.48,0-5.24,0c-1.62-4.39-3.32-8.76-5.1-13.13c-0.31-0.77-0.65-1.53-0.97-2.3c0,0.13,0.01,0.24,0.01,0.37
			c0,4.58-1.25,8.24-3.76,10.97c-2.5,2.73-5.83,4.1-9.98,4.1s-7.48-1.36-10-4.1c-0.26-0.28-0.49-0.58-0.73-0.88l-0.75,4.97H25.3
			c0.17-2.52,0.29-5.03,0.36-7.53c0.07-2.5,0.11-5.01,0.11-7.53c0-2.49-0.04-4.99-0.13-7.51c-0.08-2.52-0.2-5.02-0.34-7.51h10.8
			c-0.12,3.79-0.21,6.9-0.27,9.33c-0.06,2.43-0.08,4.75-0.05,6.96c0,0.51,0.01,1.04,0.02,1.57c0.01,0.54,0.02,1.07,0.02,1.61
			c0.28,0.01,0.55,0.01,0.82,0.01c1.22,0,2.38-0.05,3.47-0.16c0.75-0.07,2.17-0.17,3.51-0.29c-0.25-1.25-0.38-2.58-0.38-4.02
			c0-4.55,1.26-8.2,3.77-10.93c2.51-2.73,5.85-4.1,10-4.1c3.91,0,7.09,1.23,9.54,3.66l9.29-3.66c0.98,2.43,1.94,4.87,2.9,7.32
			c0.95,2.45,1.91,4.9,2.86,7.36c0.69-2.69,1.37-5.36,2.04-8.02S84.96,5.38,85.63,2.72 M57.01,23.6c1.12,0,2.08-0.48,2.88-1.42
			c0.8-0.95,1.2-2.09,1.2-3.42s-0.4-2.47-1.2-3.42c-0.8-0.95-1.76-1.42-2.88-1.42c-1.12,0-2.08,0.47-2.88,1.42
			c-0.8,0.95-1.2,2.09-1.2,3.42s0.4,2.47,1.2,3.42C54.93,23.12,55.89,23.6,57.01,23.6 M84.25,0l-0.56,2.23
			c-0.66,2.64-1.33,5.29-1.99,7.93c-0.17,0.67-0.34,1.34-0.51,2.01c-0.14-0.35-0.27-0.69-0.41-1.04l-0.2-0.5
			c-0.95-2.44-1.93-4.91-2.91-7.34l-0.74-1.84L75.1,2.17l-8.13,3.2c-2.68-2.22-6.03-3.34-9.96-3.34c-4.71,0-8.57,1.6-11.47,4.74
			c-2.85,3.09-4.3,7.23-4.3,12.28c0,0.74,0.03,1.47,0.1,2.2c-0.57,0.04-1.07,0.08-1.42,0.12c-0.67,0.06-1.39,0.11-2.13,0.13
			c-0.01-0.4-0.01-0.79-0.01-1.17c-0.02-2.19-0.01-4.51,0.05-6.91c0.06-2.32,0.14-5.37,0.27-9.32l0.07-2.06H36.1H25.3h-2.12
			l0.12,2.12c0.14,2.5,0.26,5.01,0.34,7.46c0.08,2.46,0.12,4.96,0.12,7.45c0,2.52-0.04,5.03-0.11,7.47
			c-0.07,2.44-0.19,4.95-0.35,7.46l-0.14,2.13h2.14h20.23h1.72l0.26-1.7l0.17-1.12c2.57,1.88,5.69,2.82,9.33,2.82
			c4.72,0,8.57-1.6,11.46-4.74c1.38-1.5,2.43-3.25,3.14-5.23c1.15,2.91,2.26,5.82,3.31,8.67l0.48,1.31h1.39h5.24h5.2h1.57l0.37-1.52
			c0.51-2.07,1.05-4.16,1.62-6.25c-0.04,1.85-0.09,3.76-0.16,5.7l-0.08,2.07h2.08h4.42h4.42h4.42h4.42h1.66l0.3-1.63l1.5-8.06
			l0.54-2.89l-2.21,0.43l0.13-0.72l1.5-8.02l0.14-0.75l0.55,0.11l-0.28-1.51l0.14-0.74l-0.27,0.05l-0.13-0.69l-1.5-8.02l-0.31-1.63
			h-1.66h-4.44h-4.44h-4.47h-4.43h-2.06l0.01,0.52c-0.59-0.24-1.17-0.47-1.74-0.69c-0.82-0.32-1.64-0.66-2.47-0.99L84.25,0L84.25,0z
			 M57.01,21.6c-0.37,0-0.82-0.08-1.35-0.71c-0.5-0.59-0.73-1.26-0.73-2.13s0.23-1.54,0.73-2.12c0.53-0.63,0.98-0.71,1.35-0.71
			c0.37,0,0.82,0.08,1.35,0.71c0.5,0.59,0.73,1.26,0.73,2.13s-0.23,1.54-0.73,2.12C57.83,21.51,57.38,21.6,57.01,21.6L57.01,21.6z"
			/>
	</g>
	<g>
		<path class="st6" d="M39.35,67.98c-0.88-1.13-1.73-2.33-2.51-3.56c-0.78-1.22-1.54-2.44-2.28-3.66c-0.1-0.16-0.2-0.32-0.3-0.48
			c-0.01,0.29-0.02,0.59-0.03,0.88c-0.03,0.3-0.04,0.53-0.05,0.76c-0.01,0.22-0.02,0.45-0.02,0.69c0,0-0.19,3.79-0.22,4.21
			l-0.05,0.95H22.61l0.08-1.08c0.06-0.76,0.11-1.54,0.15-2.35c-0.68,0.58-1.39,1.05-2.11,1.41c-0.42,0.22-0.87,0.4-1.31,0.53
			c-0.47,0.14-0.94,0.21-1.39,0.21H1.04l0.04-1.04c0.19-4.97,0.28-10.03,0.28-15.03c0-5-0.1-10.04-0.28-14.98l-0.04-1.04h16.2
			c0.25,0,0.52,0.03,0.79,0.08c0.27,0.06,0.53,0.14,0.8,0.25c0.91,0.36,1.81,0.99,2.68,1.88c0.26,0.27,0.51,0.54,0.76,0.82
			c-0.02-0.23-0.13-1.75-0.13-1.75H33.7c0.49,0,0.99,0.01,1.5,0.02c0.51,0.01,1.03,0.04,1.56,0.06c1.32,0.06,2.61,0.16,3.82,0.3
			c1.38,0.17,2.29,0.45,2.85,0.88c1.17,0.92,2.21,1.87,3.08,2.83c0.04,0.04,0.08,0.09,0.12,0.13c-0.03-1.5-0.07-2.99-0.11-4.48
			l-0.03-1.03h19.64l1.92,10.28l-1.45-0.28c-1.39-0.27-2.82-0.43-4.25-0.47c-0.33-0.01-0.67-0.01-1-0.01
			c-0.83,0-1.66,0.03-2.49,0.09c-0.01,0.27-0.01,0.54-0.01,0.82v0.84c0.74,0.04,1.48,0.06,2.23,0.06c0.39,0,0.78-0.01,1.16-0.02
			c1.41-0.04,2.83-0.2,4.22-0.47l1.44-0.28l-1.92,10.28h-7.14c0.01,0.26,0.02,0.52,0.02,0.78c0,0.27,0,0.54,0.02,0.82
			c0,0.01,0,0.02,0,0.02c0.74,0.04,1.49,0.06,2.23,0.06c0.39,0,0.78-0.01,1.18-0.02c1.28-0.04,2.57-0.17,3.84-0.4l6.94-20.83h10.63
			L87,44.02l0.61-9.08h24.45l-0.13,0.75h9.56l-0.03,1.03c-0.05,1.58-0.09,3.18-0.13,4.79c-0.03,1.27-0.05,2.54-0.07,3.82h3.01
			c-0.02-1.27-0.04-2.54-0.07-3.82c-0.04-1.61-0.08-3.2-0.12-4.79l-0.03-1.03h12.61l-0.03,1.03c-0.07,2.49-0.13,4.99-0.18,7.5
			c-0.05,2.45-0.07,4.97-0.07,7.49c0,2.51,0.02,5.02,0.06,7.52c0.04,2.53,0.1,5.05,0.2,7.51l0.04,1.04h-12.62l0.03-1.03
			c0.05-1.64,0.09-3.27,0.12-4.89c0.03-1.29,0.05-2.58,0.08-3.88h-3.01c0.02,1.3,0.04,2.59,0.07,3.88c0.04,1.62,0.08,3.25,0.13,4.89
			l0.03,1.03h-12.62l0.04-1.04c0.09-2.45,0.16-4.98,0.2-7.51c0.04-2.5,0.06-5,0.06-7.52c0-1.45-0.01-2.91-0.03-4.42h-0.12
			c-0.45,0-0.91-0.03-1.37-0.09c-0.41-0.06-0.83-0.12-1.25-0.21l-0.13-0.01c0,0-1.4-0.18-1.46-0.19c-0.02,1.62-0.02,3.26-0.02,4.93
			c0,2.06,0.02,4.12,0.07,6.13l0.07,4.1c0.02,1.37,0.06,2.71,0.11,4.03l0.04,1.04h-8.91l0.3,0.75H84.08l-1.65-4.8h-6.99l-1.47,4.8
			H62.37l0.43-1.28H50.91l0.03,0.04l-11.22,1.92L39.35,67.98z M44.68,55.77c0.23,0.65,0.5,1.37,0.81,2.15
			c0.32,0.83,0.72,1.7,1.17,2.58c0.02-0.85,0.04-1.7,0.05-2.55c0.02-1.48,0.04-2.97,0.04-4.46c-0.23,0.34-0.46,0.66-0.7,0.98
			c-0.3,0.39-0.63,0.73-0.98,1.01C44.95,55.58,44.82,55.68,44.68,55.77z M93.02,59.13c0-0.47,0.01-0.95,0.01-1.42
			c0.05-2.02,0.07-4.03,0.07-6.01c0-1.64-0.01-3.26-0.02-4.86c-0.75,0.03-1.52,0.06-2.28,0.11c-0.83,0.05-1.65,0.2-2.45,0.44
			L93.02,59.13z M13.2,57.61c0,0,0.07,1.38,0.08,1.4c0.31-0.13,0.58-0.27,0.81-0.43c0.4-0.27,0.45-1.09,0.44-1.55
			c0-0.27-0.07-0.58-0.56-0.89c-0.26-0.17-0.54-0.32-0.84-0.47C13.12,55.74,13.2,57.61,13.2,57.61z M78.91,52.87l-0.2-0.57
			l-0.18,0.57H78.91z M34.32,46.64c-0.03,0.71-0.05,1.39-0.05,2.05c-0.03,0.73-0.04,1.43-0.04,2.14v0.75
			c0.32-0.21,0.63-0.45,0.92-0.73c0.67-0.65,1.23-1.47,1.67-2.45c0.08-0.18,0.14-0.34,0.18-0.47l-0.05-0.06l-0.01-0.04
			c-0.01-0.02-0.03-0.05-0.07-0.08c-0.08-0.07-0.19-0.2-0.31-0.34c-0.4-0.42-0.85-0.79-1.3-1.05c-0.31-0.18-0.62-0.35-0.92-0.51
			C34.35,46.14,34.34,46.39,34.32,46.64z M22.97,51.52c-0.01-0.45-0.03-0.89-0.04-1.33c-0.06,0.09-0.37,0.59-0.47,0.75
			C22.51,51,22.86,51.4,22.97,51.52z M12.93,45.63c-0.01,0.58-0.01,1.15-0.02,1.71c0.33-0.11,0.63-0.24,0.91-0.39
			c0.26-0.14,0.52-0.39,0.52-1.1v-0.3c-0.06-0.68-0.37-0.96-0.63-1.12c-0.24-0.15-0.49-0.28-0.76-0.4
			C12.95,44.56,12.94,45.09,12.93,45.63z"/>
		<path class="st7" d="M65.3,35.41l1.5,8.02c-1.45-0.28-2.93-0.45-4.42-0.49c-0.34-0.01-0.69-0.01-1.03-0.01
			c-1.15,0-2.3,0.05-3.46,0.16c-0.02,0.57-0.04,1.15-0.04,1.74s0,1.19,0,1.78c1.08,0.08,2.15,0.12,3.22,0.12
			c0.4,0,0.8-0.01,1.19-0.02c1.47-0.04,2.93-0.21,4.38-0.49l-1.5,8.02h-7.33c0,0.28,0.01,0.57,0.02,0.87
			c0.01,0.3,0.02,0.6,0.02,0.91c0,0.28,0,0.57,0.02,0.87c0.01,0.3,0.02,0.6,0.02,0.91c1.08,0.08,2.15,0.12,3.22,0.12
			c0.4,0,0.8-0.01,1.19-0.02c1.47-0.04,2.93-0.21,4.38-0.49l-0.23,1.24l7.32-21.98h9.23l10.9,27.36c0.02-0.71,0.05-1.42,0.06-2.15
			c0.04-1.38,0.06-2.79,0.06-4.2c0.05-2.01,0.07-4.01,0.07-6.01c0-2-0.01-3.95-0.04-5.88c-0.07,0-0.14,0-0.2,0c-0.06,0-0.13,0-0.2,0
			c-0.98,0.03-1.96,0.07-2.93,0.13c-0.98,0.06-1.95,0.24-2.9,0.55l0.72-10.57h22.32l-0.13,0.75h9.72c-0.05,1.59-0.09,3.18-0.13,4.79
			c-0.04,1.61-0.06,3.23-0.09,4.84h5.04c-0.02-1.61-0.05-3.23-0.09-4.84c-0.04-1.61-0.08-3.21-0.12-4.79h10.55
			c-0.07,2.49-0.13,4.99-0.18,7.51c-0.05,2.52-0.07,5.02-0.07,7.51c0,2.52,0.02,5.03,0.06,7.53c0.04,2.5,0.1,5.01,0.2,7.53h-10.55
			c0.05-1.64,0.09-3.27,0.12-4.9c0.04-1.63,0.07-3.26,0.09-4.9h-5.04c0.02,1.64,0.05,3.28,0.09,4.9c0.04,1.63,0.08,3.26,0.13,4.9
			h-10.55c0.1-2.52,0.16-5.03,0.2-7.53c0.04-2.5,0.06-5.01,0.06-7.53c0-2.49-0.03-4.99-0.07-7.51c-0.02-1.15-0.06-2.29-0.08-3.44
			l-0.99,5.53c-0.4,0-0.82-0.03-1.23-0.08c-0.42-0.06-0.84-0.13-1.27-0.21c-0.02,0-0.04,0-0.05,0c-0.01,0-0.03,0-0.06,0
			c-0.43-0.06-0.86-0.11-1.29-0.17c-0.43-0.06-0.86-0.09-1.29-0.09c-0.02,1.95-0.04,3.95-0.04,5.98c0,2.04,0.02,4.09,0.07,6.15
			c0.02,1.36,0.05,2.72,0.07,4.09c0.02,1.37,0.06,2.72,0.11,4.05h-9.35l0.3,0.75H84.8l-1.65-4.8h-8.44l-1.47,4.8h-9.48l0.43-1.28
			c-1.14,0-2.28,0-3.42,0c-1.47,0-2.94,0-4.42,0c-1.48,0-2.95,0-4.42,0c-1.05,0-2.11,0-3.16,0c0.09,0.11,0.18,0.23,0.28,0.35
			l-8.91,1.53c-0.86-1.1-1.68-2.26-2.45-3.48c-0.77-1.22-1.53-2.43-2.27-3.65c-0.21-0.34-0.42-0.67-0.61-1
			c-0.19-0.32-0.38-0.66-0.57-1c-0.14-0.22-0.28-0.46-0.43-0.7c-0.14-0.24-0.29-0.47-0.43-0.7c0,0.59-0.02,1.26-0.05,2.01
			c-0.04,0.75-0.07,1.51-0.09,2.27c-0.02,0.25-0.04,0.5-0.05,0.74c-0.01,0.24-0.02,0.49-0.02,0.74c-0.05,0.88-0.09,1.68-0.13,2.42
			c-0.04,0.74-0.06,1.32-0.09,1.74h-9.27c0.12-1.59,0.21-3.24,0.27-4.97c0-0.03,0-0.06,0-0.09c-0.26,0.34-0.54,0.67-0.85,0.99
			c-0.91,0.95-1.85,1.66-2.82,2.14c-0.38,0.2-0.76,0.35-1.15,0.47c-0.38,0.11-0.75,0.17-1.11,0.17c-1.5,0-2.9,0-4.18,0
			c-1.29,0-2.55,0-3.79,0s-2.51,0-3.79,0c-1.29,0-2.68,0-4.18,0c0.19-5.03,0.28-10.06,0.28-15.06S2.27,40.42,2.08,35.41h15.16
			c0.19,0,0.39,0.02,0.59,0.06c0.2,0.04,0.41,0.11,0.62,0.19c0.79,0.31,1.57,0.86,2.34,1.65c0.77,0.79,1.46,1.64,2.06,2.55
			c0.23,0.34,0.44,0.68,0.64,1.01c-0.09-1.44-0.18-2.85-0.28-4.18H33.7c0.48,0,0.97,0.01,1.47,0.02c0.5,0.01,1.01,0.03,1.54,0.06
			c1.34,0.06,2.59,0.16,3.76,0.3c1.17,0.14,1.95,0.37,2.36,0.68c1.12,0.88,2.1,1.78,2.95,2.71c0.79,0.87,1.42,1.8,1.93,2.79
			c0-0.11,0-0.22,0-0.33c-0.05-2.52-0.11-5.02-0.18-7.51c1.48,0,2.96,0,4.43,0c1.48,0,2.97,0,4.47,0c1.48,0,2.96,0,4.44,0
			C62.34,35.41,63.82,35.41,65.3,35.41 M11.91,48.6c0.91-0.14,1.7-0.4,2.39-0.78c0.69-0.38,1.04-1.04,1.04-1.97
			c0-0.03,0-0.06,0-0.09c0-0.03,0-0.06,0-0.08c0-0.06,0-0.1,0-0.13c-0.07-0.9-0.44-1.56-1.11-1.98c-0.67-0.41-1.42-0.73-2.25-0.95
			c-0.02,0.99-0.04,1.99-0.05,2.99C11.92,46.62,11.91,47.62,11.91,48.6 M33.23,53.15c0.98-0.31,1.85-0.84,2.61-1.57
			c0.76-0.74,1.39-1.65,1.89-2.76c0.1-0.22,0.17-0.41,0.22-0.55c0.05-0.14,0.07-0.27,0.07-0.38c0-0.11-0.02-0.21-0.05-0.3
			c-0.04-0.09-0.09-0.17-0.16-0.26c-0.05-0.08-0.11-0.17-0.2-0.26c-0.08-0.08-0.17-0.18-0.27-0.3c-0.5-0.54-1.03-0.96-1.57-1.27
			c-0.55-0.31-1.1-0.61-1.64-0.89c-0.12-0.06-0.24-0.11-0.36-0.17c-0.12-0.06-0.24-0.11-0.36-0.17c-0.02,0.82-0.05,1.59-0.09,2.31
			c-0.04,0.72-0.05,1.42-0.05,2.1c-0.03,0.71-0.04,1.42-0.04,2.14C33.23,51.56,33.23,52.33,33.23,53.15 M24.03,54.23
			c0-0.07,0-0.14,0-0.21c-0.01-0.83-0.03-1.66-0.05-2.48c-0.04-1.55-0.12-3.07-0.18-4.6c-0.36,0.59-0.71,1.18-1.11,1.79
			c-0.26,0.4-0.52,0.79-0.77,1.19c-0.25,0.4-0.48,0.78-0.7,1.15c0.21,0.23,0.44,0.47,0.66,0.72c0.23,0.26,0.45,0.51,0.66,0.76
			c0.19,0.2,0.39,0.41,0.59,0.64c0.2,0.23,0.4,0.44,0.59,0.64C23.83,53.96,23.92,54.1,24.03,54.23 M77.18,53.87h3.15l-1.68-4.75
			L77.18,53.87 M47.56,63.89c0.06-1.98,0.13-3.96,0.15-5.93c0.04-2.5,0.05-5.01,0.05-7.53c0-0.24-0.01-0.48-0.01-0.71
			c-0.09,0.21-0.18,0.42-0.29,0.63c-0.67,1.27-1.41,2.45-2.22,3.52c-0.24,0.31-0.51,0.59-0.81,0.83c-0.3,0.24-0.62,0.45-0.98,0.61
			c0.28,0.85,0.65,1.84,1.09,2.97c0.44,1.13,0.98,2.28,1.63,3.44c0.41,0.71,0.85,1.41,1.32,2.1C47.52,63.85,47.54,63.87,47.56,63.89
			 M12.31,60.36c0.95-0.22,1.73-0.54,2.34-0.95c0.61-0.41,0.9-1.21,0.88-2.4c0-0.7-0.34-1.28-1.02-1.72
			c-0.68-0.44-1.48-0.8-2.41-1.08c0,0.57,0.01,1.14,0.04,1.72c0.02,0.58,0.05,1.15,0.07,1.72c0.02,0.45,0.05,0.9,0.07,1.36
			C12.3,59.46,12.31,59.91,12.31,60.36 M66.96,33.41H65.3h-4.44h-4.44h-4.47h-4.43h-2.06l0.06,2.06c0.02,0.66,0.04,1.32,0.05,1.98
			c-0.48-0.43-0.98-0.86-1.51-1.27c-0.73-0.56-1.79-0.9-3.36-1.09c-1.23-0.15-2.55-0.25-3.91-0.31c-0.52-0.03-1.05-0.05-1.57-0.06
			c-0.52-0.01-1.03-0.02-1.52-0.02H23.22h-2.16l0.02,0.21c-0.62-0.47-1.25-0.84-1.89-1.09c-0.29-0.12-0.6-0.21-0.92-0.29
			c-0.37-0.08-0.7-0.11-1.03-0.11H2.08H0l0.08,2.08c0.19,4.93,0.28,9.96,0.28,14.95c0,4.99-0.1,10.03-0.28,14.99L0,67.5h2.08h4.18
			h3.79h3.79h4.18c0.55,0,1.12-0.09,1.68-0.25c0.5-0.15,1-0.35,1.49-0.61c0.17-0.08,0.34-0.17,0.51-0.27
			c-0.01,0.09-0.01,0.17-0.02,0.26l-0.16,2.15h2.16h9.27h1.89l0.1-1.89c0.02-0.43,0.05-1.01,0.09-1.76
			c0.02-0.49,0.05-1.01,0.08-1.57c0.28,0.45,0.58,0.92,0.88,1.4c0.8,1.26,1.66,2.48,2.56,3.64l0.74,0.94l1.18-0.2l8.91-1.53
			l1.85-0.32h0.7h4.42h4.42h0.65l-0.43,1.28h2.77h9.48h1.48l0.43-1.41l1.04-3.38h5.53l1.18,3.45l0.46,1.35h1.43h10.19h2.95
			l-0.3-0.75h6.4h2.08l-0.08-2.07c-0.05-1.28-0.08-2.59-0.11-4.01l-0.07-4.09c-0.05-2.01-0.07-4.07-0.07-6.12
			c0-1.27,0-2.54,0.01-3.79l0.34,0.04l0.13,0.02h0.04c0.37,0.07,0.76,0.13,1.18,0.19c0.22,0.03,0.43,0.05,0.65,0.07
			c0.01,1.17,0.02,2.32,0.02,3.45c0,2.39-0.02,4.85-0.06,7.5c-0.04,2.52-0.1,5.03-0.2,7.48l-0.08,2.08h2.08h10.55h2.06l-0.06-2.06
			c-0.05-1.64-0.09-3.27-0.13-4.89c-0.02-0.95-0.04-1.9-0.06-2.86h0.98c-0.02,0.96-0.04,1.91-0.06,2.86
			c-0.04,1.63-0.08,3.25-0.12,4.89l-0.06,2.06h2.06h10.55h2.08l-0.08-2.08c-0.09-2.45-0.16-4.97-0.2-7.48
			c-0.04-2.42-0.06-4.94-0.06-7.5c0-2.51,0.02-5.03,0.07-7.47c0.05-2.59,0.11-5.11,0.18-7.49l0.06-2.06h-2.06h-10.55h-2.06
			l0.06,2.06c0.05,1.58,0.09,3.17,0.12,4.78c0.02,0.93,0.04,1.86,0.06,2.79h-0.98c0.02-0.93,0.03-1.86,0.06-2.79
			c0.04-1.61,0.08-3.2,0.13-4.78l0.06-2.06h-2.06h-7.33l0.13-0.75h-2.39H88.55h-1.87l-0.13,1.86l-0.25,3.76l-1.44-3.61l-0.5-1.26
			h-1.36h-9.23h-1.44l-0.46,1.37l-2.84,8.52l-0.02-0.13l0.14-0.74l-0.27,0.05l-0.13-0.69l-1.5-8.02L66.96,33.41L66.96,33.41z
			 M35.26,49.19c0-0.14,0.01-0.28,0.01-0.42l0-0.04v-0.04c0-0.36,0.01-0.73,0.02-1.1c0.19,0.15,0.38,0.33,0.57,0.53c0,0,0,0,0,0
			C35.68,48.51,35.48,48.86,35.26,49.19L35.26,49.19z M89.7,48.09c0.38-0.07,0.76-0.12,1.15-0.14c0.4-0.02,0.82-0.05,1.23-0.07
			c0.01,1.26,0.01,2.54,0.01,3.82c0,0.79,0,1.58-0.01,2.37L89.7,48.09L89.7,48.09z"/>
	</g>
</g>
</svg>
